<?xml version="1.0" encoding="utf-8"?>
<!-- Generator: Adobe Illustrator 23.0.1, SVG Export Plug-In . SVG Version: 6.00 Build 0)  -->
<svg version="1.1" id="Layer_1" xmlns="http://www.w3.org/2000/svg" xmlns:xlink="http://www.w3.org/1999/xlink" x="0px" y="0px"
	 viewBox="0 0 300 300" style="enable-background:new 0 0 300 300;" xml:space="preserve">
<style type="text/css">
	.st0{fill:#61B886;}
</style>
<title>Asset 3</title>
<g>
	<g id="Layer_1-2">
		<g>
			<g>
				<rect x="33.4" y="157.5" class="st0" width="33.9" height="109.4"/>
			</g>
			<g>
				<rect x="101.3" y="122.8" class="st0" width="33.9" height="144.1"/>
			</g>
			<g>
				<rect x="169.2" y="88.2" class="st0" width="33.9" height="178.8"/>
			</g>
			<g>
				<rect x="237.1" y="53.5" class="st0" width="33.9" height="213.4"/>
			</g>
			<g>
				<rect x="12.8" y="279.4" class="st0" width="278.4" height="19"/>
			</g>
			<g>
				<path class="st0" d="M49.2,105.8l170.1-95.2c1.1-0.6,2.5-0.2,3.1,0.9l0,0c0.6,1.1,0.2,2.5-0.9,3.1L51.4,109.8
					c-1.1,0.6-2.5,0.2-3.1-0.9l0,0C47.7,107.8,48.1,106.4,49.2,105.8z"/>
				<path class="st0" d="M50.3,113.6c-2,0-4-1.1-5.1-3c-0.8-1.4-0.9-2.9-0.5-4.4c0.4-1.5,1.4-2.7,2.7-3.5L217.6,7.6
					c1.3-0.8,2.9-0.9,4.4-0.5c1.5,0.4,2.7,1.4,3.5,2.7l0,0.1c0.7,1.3,0.9,2.9,0.5,4.3c-0.4,1.5-1.4,2.7-2.7,3.5L53.1,112.9
					C52.2,113.4,51.3,113.6,50.3,113.6z"/>
			</g>
			<g>
				<path class="st0" d="M222.8,12.3c0,0,0-0.1,0-0.1l0-0.1c0,0,0-0.1,0-0.1c0,0,0-0.1,0-0.1l0-0.1c0,0,0-0.1,0-0.1l0-0.1
					c0,0,0-0.1-0.1-0.1l-0.1-0.1l-0.1-0.1l-0.1-0.1c0,0,0,0-0.1-0.1l-0.1-0.1l-0.1-0.1c0,0-0.1-0.1-0.1-0.1l-0.1-0.1l-0.1-0.1
					l-0.1-0.1l-0.1,0l0,0l0,0l-0.1-0.1l-0.1,0l-0.1,0l-0.1,0l-0.1,0l-0.1,0H221l-0.1,0h-0.1h-0.1h0L166,9.6c-1.3,0-2.3,1-2.3,2.2
					c0,0,0,0,0,0l0,0c0,1.3,1,2.3,2.2,2.3c0,0,0,0,0,0l50.6,0.7l-25.9,43.5c-0.6,1.1-0.3,2.5,0.8,3.1l0,0c1.1,0.6,2.5,0.3,3.1-0.8
					l27.9-46.9c0,0,0,0,0,0c0,0,0-0.1,0.1-0.1l0-0.1l0-0.1c0,0,0-0.1,0-0.1c0,0,0-0.1,0-0.1c0,0,0-0.1,0-0.1c0,0,0-0.1,0-0.1l0-0.1
					c0,0,0-0.1,0-0.1c0,0,0-0.1,0-0.1v0l0,0v-0.1c0,0,0-0.1,0-0.1C222.8,12.4,222.8,12.3,222.8,12.3z"/>
				<path class="st0" d="M192.6,65.2c-1,0-2-0.3-2.9-0.8c-2.7-1.6-3.6-5.2-2-7.9l22.8-38.3l-44.6-0.6c-3.2,0-5.7-2.7-5.7-5.8
					c0-3.2,2.7-5.8,5.9-5.7l54.6,0.8l0.5,0l1.9,0.5l1.3,0.8c0.1,0.1,0.3,0.2,0.4,0.3l0.9,1.1c0.1,0.2,0.2,0.4,0.3,0.6
					c0.1,0.1,0.1,0.2,0.1,0.3l0.1,0.2c0,0,0,0,0,0c0.1,0.2,0.1,0.4,0.2,0.7l0.1,0.3v0.5c0,0.1,0,0.1,0,0.2v0c0,0.1,0,0.2,0,0.2l0,0
					l-0.1,1.1l-0.2,0.6v0.2l-0.5,0.8l-27.9,46.9C196.5,64.2,194.6,65.2,192.6,65.2z M166,10.6L166,10.6C166,10.6,166,10.6,166,10.6z
					"/>
			</g>
		</g>
	</g>
</g>
</svg>
