<?xml version="1.0" encoding="utf-8"?>
<!-- Generator: Adobe Illustrator 23.0.1, SVG Export Plug-In . SVG Version: 6.00 Build 0)  -->
<svg version="1.1" id="Layer_1" xmlns="http://www.w3.org/2000/svg" xmlns:xlink="http://www.w3.org/1999/xlink" x="0px" y="0px"
	 viewBox="0 0 200 200" style="enable-background:new 0 0 200 200;" xml:space="preserve">
<style type="text/css">
	.st0{fill:#61B886;}
</style>
<path class="st0" d="M141.9,1.2H23.9c-3.5,0-6.3,2.7-6.3,6v185.5c0,3.3,2.8,6,6.3,6h158.5c3.5,0,6.3-2.7,6.3-6V45.4
	c0-5.5-2.3-10.7-6.3-14.6L158,7.6C153.7,3.5,147.9,1.2,141.9,1.2L141.9,1.2z M70.2,122.6c-2.2,3.4-4.5,6.9-6.7,10.3
	c-2.9,4.5-5.9,9-8.8,13.5c-0.5,0.8-1.3,1.4-2.3,1.5c-0.2,0-0.3,0-0.5,0c-1,0-2-0.5-2.6-1.2c-2.1-2.6-4.1-5.2-6.2-7.8
	c-0.6-0.8-1.2-1.5-1.8-2.3c-1-1.3-0.7-3.2,0.7-4.2c1.4-1,3.3-0.7,4.4,0.7c1.6,2,3.2,4,4.8,6c0.1,0.2,0.3,0.5,0.5,0.5
	c0.2,0,0.3-0.3,0.4-0.5c3.5-5.3,7-10.7,10.5-16c0.8-1.2,1.5-2.4,2.3-3.5c0.8-1.2,2.4-1.7,3.8-1.3c1.6,0.6,2.5,2.3,1.9,3.8
	C70.4,122.3,70.3,122.4,70.2,122.6L70.2,122.6z M70.2,87.3c-2.2,3.4-4.5,6.9-6.7,10.3c-2.9,4.5-5.9,9-8.8,13.5
	c-0.5,0.8-1.3,1.4-2.3,1.5c-0.2,0-0.3,0-0.5,0c-1,0-2-0.5-2.6-1.2l-6.2-7.8c-0.6-0.8-1.2-1.5-1.8-2.3c-1-1.3-0.7-3.2,0.7-4.2
	c1.4-1,3.3-0.7,4.4,0.7c1.6,2,3.2,4,4.8,6c0.1,0.2,0.3,0.5,0.5,0.5c0.2,0,0.3-0.3,0.4-0.5c3.5-5.3,7-10.7,10.5-16
	c0.8-1.2,1.6-2.4,2.4-3.6c1-1.4,2.9-1.8,4.4-0.9C70.6,84.1,71,85.9,70.2,87.3L70.2,87.3z M70.2,52c-2.2,3.4-4.5,6.9-6.7,10.3
	c-2.9,4.5-5.9,9-8.8,13.5c-0.5,0.8-1.3,1.4-2.3,1.5c-0.2,0-0.3,0-0.5,0c-1,0-2-0.5-2.6-1.2c-2.1-2.6-4.1-5.2-6.2-7.8
	c-0.6-0.8-1.2-1.5-1.8-2.3c-1-1.3-0.7-3.2,0.7-4.2c1.4-1,3.3-0.7,4.4,0.7c1.6,2,3.2,4,4.8,6c0.1,0.2,0.3,0.5,0.5,0.5
	c0.2,0,0.3-0.3,0.4-0.5c3.5-5.3,7-10.7,10.5-16c0.8-1.2,1.6-2.4,2.4-3.6c1-1.4,2.9-1.8,4.4-0.9C70.6,48.8,71,50.6,70.2,52L70.2,52z
	 M155,141c0,1.9-1.6,3.4-3.6,3.4H82.4c-2,0-3.6-1.5-3.6-3.4c0-1.9,1.6-3.4,3.6-3.4h69.1C153.4,137.6,155,139.1,155,141z M155,103.4
	c0,1.9-1.6,3.4-3.6,3.4H82.4c-2,0-3.6-1.5-3.6-3.4c0-1.9,1.6-3.4,3.6-3.4h69.1C153.4,100,155,101.5,155,103.4z M155,65.8
	c0,1.9-1.6,3.4-3.6,3.4H82.4c-2,0-3.6-1.5-3.6-3.4v0c0-1.9,1.6-3.4,3.6-3.4l0,0h69.1C153.4,62.4,155,63.9,155,65.8L155,65.8z"/>
</svg>
