<?xml version="1.0" encoding="utf-8"?>
<!-- Generator: Adobe Illustrator 23.0.1, SVG Export Plug-In . SVG Version: 6.00 Build 0)  -->
<svg version="1.1" id="Layer_1" xmlns="http://www.w3.org/2000/svg" xmlns:xlink="http://www.w3.org/1999/xlink" x="0px" y="0px"
	 viewBox="0 0 200 133.5" style="enable-background:new 0 0 200 133.5;" xml:space="preserve">
<style type="text/css">
	.st0{fill:none;}
	.st1{fill:#61B886;}
	.st2{fill:#61B886;stroke:#61B886;stroke-width:5;stroke-miterlimit:10;}
</style>
<title>Asset 4</title>
<g>
	<rect x="11.1" y="20.5" class="st0" width="148" height="62"/>
	<path class="st1" d="M168.6,20.5V9.5H1.7v84.1h166.9V82.5h-0.1L168.6,20.5L168.6,20.5z M159.1,82.5h-148v-62h148V82.5z"/>
</g>
<circle class="st2" cx="159.1" cy="20.6" r="5.2"/>
<circle class="st2" cx="11.1" cy="20.5" r="5.2"/>
<circle class="st2" cx="11.1" cy="82.5" r="5.2"/>
<circle class="st2" cx="159.1" cy="82.1" r="5.2"/>
<path class="st1" d="M85.2,9.5c-14.4,0-26.1,18.8-26.1,42.1s11.7,42.1,26.1,42.1s26.1-18.8,26.1-42.1S99.6,9.5,85.2,9.5z M94.3,65.9
	c-1.6,1.6-3.8,2.5-6.6,2.5v5.5h-3.3v-6.2c-1.1-0.5-2-1.3-2.7-2.3V68h-5.1V57.8h5.1c0.1,1.8,0.6,3.1,1.4,4.1c0.8,0.9,1.9,1.4,3.3,1.4
	c0.9,0,1.7-0.3,2.3-0.9c0.6-0.6,1-1.4,1-2.3c0-0.9-0.4-1.8-1.1-2.5c-0.7-0.8-2-1.5-3.7-2.3c-3-1.3-5.1-2.7-6.5-4.2
	c-1.3-1.4-2-3.3-2-5.2c0-1.5,0.3-2.9,1-4.2c0.7-1.3,1.7-2.3,2.9-3c1.2-0.7,2.7-1.1,4.1-1.1v-5.2h3.3v6c0.9,0.5,1.7,1.2,2.3,2.1v-2.5
	h5.1V47H90c-0.2-1.5-0.7-2.6-1.4-3.3c-0.8-0.8-1.8-1.2-2.9-1.1c-0.8,0-1.5,0.2-2.1,0.7c-0.6,0.4-0.9,1.1-0.9,1.8c0,0.8,0.4,1.5,1,2
	c0.9,0.7,1.8,1.3,2.9,1.7c1.5,0.6,3,1.3,4.5,2.1c1.2,0.6,2.3,1.4,3.2,2.4c0.8,0.8,1.4,1.7,1.8,2.7c0.4,1.1,0.6,2.3,0.6,3.5
	C96.6,62.1,95.8,64.3,94.3,65.9z"/>
<g>
	<polygon class="st1" points="183.5,108.2 183.6,108.2 183.6,97.1 183.5,97.1 183.5,35.1 172.4,35.1 172.4,97.1 16.6,97.1 
		16.6,108.2 172.4,108.2 	"/>
	<polygon class="st1" points="198.2,111.6 198.2,49.6 187.1,49.6 187.1,111.6 31.4,111.6 31.4,122.7 187.1,122.7 198.2,122.7 
		198.3,122.7 198.3,111.6 	"/>
</g>
</svg>
